# xmcd
#
# Track frame offsets: 
#        150
#        18221
#        35399
#        48045
#        61865
#        85687
#        104272
#        129927
#        147854
#        163446
#        182361
#        205488
#        221981
#        247013
#        262932
#        278614
#        292852
#        310567
#        325513
#        343876
#
# Disc length: 4779 seconds
#
# Revision: 0
# Processed by: cddbd v1.5.2PL0 Copyright (c) Steve Scherf et al.
# Submitted via: ExactAudioCopy v0.99pb4
#
DISCID=1512a914
DTITLE=Various Artist - Las 100 De Los Músicos, Poetas Y Locos CD 5
DYEAR=2008
DGENRE=Rock
TTITLE0=Alaska Y Dinarama - Cómo Pudiste Hacerme Esto A Mí
TTITLE1=Tam Tam Go! - Crimen Pasional
TTITLE2=Fito Paez - 11 y 6
TTITLE3=Rostros Ocultos - Abre Tu Corazón
TTITLE4=Héroes Del Silencio - Iberia Sumergida
TTITLE5=Radio Kaos - Abril
TTITLE6=Jarabe De Palo - De Vuelta Y Vuelta
TTITLE7=El Gran Silencio - Chuntaro Style
TTITLE8=Los Pericos - Me Late
TTITLE9=Miguel Ríos - No Voy En Tren
TTITLE10=Fito Paez - La Rumba Del Piano
TTITLE11=Tam Tam Go! - Asunción En Avión
TTITLE12=Los Prisioneros - El Baile De Los Que Sobran
TTITLE13=Rostros Ocultos - Dame Sólo Una Oportunidad
TTITLE14=Los Ronaldos - Qué Vamos A Hacer
TTITLE15=La Mosca Tse-Tse - Para No Verte Más
TTITLE16=Enrique Bunbury - Infinito
TTITLE17=Alaska Y Dinarama - A Quién Le Importa
TTITLE18=Jarabe De Palo - La Flaca
TTITLE19=Rostros Ocultos - Divididos
EXTD=
EXTT0=
EXTT1=
EXTT2=
EXTT3=
EXTT4=
EXTT5=
EXTT6=
EXTT7=
EXTT8=
EXTT9=
EXTT10=
EXTT11=
EXTT12=
EXTT13=
EXTT14=
EXTT15=
EXTT16=
EXTT17=
EXTT18=
EXTT19=
PLAYORDER=
